<svg width="40" height="40" viewBox="0 0 40 40" fill="none" xmlns="http://www.w3.org/2000/svg">
<g clip-path="url(#clip0_7_11)">
<path d="M20.574 6.90038C22.0064 6.87851 23.4282 6.88988 24.8492 6.87851C24.8965 8.65563 25.6175 10.2551 26.7646 11.4399L26.7629 11.4381C27.9975 12.5503 29.604 13.2713 31.375 13.3938L31.3995 13.3955V17.802C29.7265 17.76 28.1532 17.3741 26.7349 16.7109L26.8066 16.7406C26.1206 16.4108 25.5405 16.0721 24.9892 15.6941L25.0347 15.7239C25.0242 18.9168 25.0452 22.1096 25.0129 25.2911C24.9227 26.9125 24.3837 28.3913 23.5192 29.6259L23.5367 29.5988C22.0912 31.669 19.7498 33.0279 17.0871 33.1084H17.0749C16.9672 33.1136 16.8404 33.1163 16.7126 33.1163C15.1989 33.1163 13.784 32.6945 12.5783 31.9621L12.6133 31.9823C10.4188 30.6619 8.905 28.4026 8.625 25.775L8.6215 25.7391C8.59963 25.1923 8.58913 24.6454 8.611 24.1099C9.03975 19.9283 12.5433 16.6934 16.8019 16.6934C17.2805 16.6934 17.7495 16.7345 18.2054 16.8124L18.1564 16.8054C18.1782 18.4233 18.1126 20.042 18.1126 21.6599C17.7425 21.526 17.3155 21.4481 16.8701 21.4481C15.2356 21.4481 13.8453 22.4929 13.3308 23.9515L13.3229 23.9778C13.2065 24.3514 13.1391 24.781 13.1391 25.2255C13.1391 25.4058 13.1505 25.5843 13.1715 25.7593L13.1698 25.7383C13.4603 27.5285 14.995 28.8795 16.8456 28.8795C16.899 28.8795 16.9515 28.8786 17.004 28.876H16.9961C18.2763 28.8375 19.3875 28.1489 20.0157 27.1313L20.0245 27.1155C20.2581 26.79 20.4183 26.3963 20.4716 25.9684L20.4725 25.9561C20.5819 23.9988 20.5381 22.0528 20.5486 20.0954C20.5591 15.6889 20.5381 11.2929 20.5705 6.89776L20.574 6.90038Z" fill="#A4A4A4" stroke="#A4A4A4"/>
</g>
<circle cx="20" cy="20" r="19" stroke="#535353" stroke-width="2"/>
<defs>
<clipPath id="clip0_7_11">
<rect width="28" height="28" fill="white" transform="translate(6 6)"/>
</clipPath>
</defs>
</svg>
