<svg width="33" height="32" viewBox="0 0 33 32" fill="none" xmlns="http://www.w3.org/2000/svg">
<path d="M9.11973 5.33325H24.5724C26.901 5.33325 28.804 7.14186 28.9325 9.42069L28.9394 9.66659V22.3333C28.9394 24.644 27.1167 26.5322 24.8202 26.6597L24.5724 26.6666H9.11973C6.79105 26.6666 4.88807 24.858 4.7596 22.5792L4.75269 22.3333V9.66659C4.75269 7.35588 6.57536 5.46759 8.87192 5.34011L9.11973 5.33325ZM14.2296 12.7805C14.1829 12.873 14.1586 12.9751 14.1586 13.0786V18.9212C14.1586 19.2894 14.4594 19.5879 14.8305 19.5879C14.9348 19.5879 15.0377 19.5638 15.1309 19.5175L21.019 16.5962C21.3509 16.4315 21.4854 16.0311 21.3195 15.7018C21.2545 15.5728 21.149 15.4681 21.019 15.4036L15.1309 12.4823C14.7991 12.3177 14.3955 12.4511 14.2296 12.7805Z" fill="black"/>
</svg>
