<svg width="40" height="40" viewBox="0 0 40 40" fill="none" xmlns="http://www.w3.org/2000/svg">
<path d="M28.325 12.309C28.325 12.309 25.67 11.975 19.968 11.975C14.451 11.975 11.674 12.309 11.674 12.309C10.9647 12.3093 10.2846 12.5912 9.78314 13.0928C9.28169 13.5945 9 14.2747 9 14.984V25.018C8.99987 25.3693 9.06893 25.7172 9.20324 26.0418C9.33755 26.3664 9.53448 26.6613 9.78278 26.9098C10.0311 27.1583 10.3259 27.3554 10.6504 27.49C10.9749 27.6246 11.3227 27.6939 11.674 27.694C11.674 27.694 14.256 28.026 19.968 28.026C25.677 28.026 28.325 27.694 28.325 27.694C28.6764 27.6943 29.0245 27.6252 29.3492 27.4908C29.674 27.3564 29.969 27.1593 30.2175 26.9107C30.4659 26.6622 30.6629 26.3671 30.7972 26.0423C30.9315 25.7175 31.0004 25.3694 31 25.018V14.982C31 14.6308 30.9308 14.2831 30.7963 13.9586C30.6619 13.6342 30.4648 13.3394 30.2164 13.0912C29.968 12.843 29.6731 12.6461 29.3485 12.5119C29.024 12.3777 28.6762 12.3087 28.325 12.309ZM17.061 23.975V16.03L24.195 20L17.061 23.975Z" fill="#A4A4A4" stroke="#A4A4A4"/>
<circle cx="20" cy="20" r="19" stroke="#535353" stroke-width="2"/>
</svg>
